<svg id="svg" version="1.1" xmlns="http://www.w3.org/2000/svg" xmlns:xlink="http://www.w3.org/1999/xlink" width="400" height="400" viewBox="0, 0, 400,400"><g id="svgg"><path id="path0" d="M279.600 142.800 C 279.600 143.680,279.780 144.400,280.000 144.400 C 280.220 144.400,280.400 144.636,280.400 144.925 C 280.400 145.213,280.715 145.798,281.100 146.225 C 281.485 146.651,282.055 147.495,282.368 148.100 C 282.680 148.705,283.085 149.200,283.268 149.200 C 283.450 149.200,283.600 149.520,283.600 149.912 C 283.600 150.303,283.960 150.883,284.400 151.200 C 284.840 151.517,285.200 152.057,285.200 152.400 C 285.200 152.743,285.560 153.283,286.000 153.600 C 286.440 153.917,286.800 154.497,286.800 154.888 C 286.800 155.280,286.980 155.600,287.200 155.600 C 287.420 155.600,287.600 155.836,287.600 156.125 C 287.600 156.413,287.960 157.036,288.400 157.508 C 288.840 157.980,289.200 158.604,289.200 158.895 C 289.200 159.186,289.560 159.683,290.000 160.000 C 290.440 160.317,290.800 160.857,290.800 161.200 C 290.800 161.543,291.160 162.083,291.600 162.400 C 292.040 162.717,292.400 163.214,292.400 163.505 C 292.400 163.796,292.760 164.420,293.200 164.892 C 293.640 165.364,294.000 165.987,294.000 166.275 C 294.000 166.564,294.180 166.800,294.400 166.800 C 294.620 166.800,294.800 167.036,294.800 167.325 C 294.800 167.613,295.160 168.236,295.600 168.708 C 296.040 169.180,296.400 169.829,296.400 170.150 C 296.400 170.471,296.617 170.806,296.883 170.894 C 297.203 171.001,297.068 171.375,296.483 172.003 C 295.997 172.524,295.600 173.187,295.600 173.475 C 295.600 173.764,295.420 174.000,295.200 174.000 C 294.980 174.000,294.800 174.236,294.800 174.525 C 294.800 174.813,294.440 175.436,294.000 175.908 C 293.560 176.380,293.200 177.004,293.200 177.295 C 293.200 177.586,292.840 178.083,292.400 178.400 C 291.960 178.717,291.600 179.257,291.600 179.600 C 291.600 179.943,291.240 180.483,290.800 180.800 C 290.360 181.117,290.000 181.614,290.000 181.905 C 290.000 182.196,289.640 182.820,289.200 183.292 C 288.760 183.764,288.400 184.387,288.400 184.675 C 288.400 184.964,288.220 185.200,288.000 185.200 C 287.780 185.200,287.600 185.436,287.600 185.725 C 287.600 186.013,287.285 186.598,286.900 187.025 C 286.515 187.451,285.945 188.295,285.632 188.900 C 285.320 189.505,284.915 190.000,284.732 190.000 C 284.550 190.000,284.400 190.320,284.400 190.712 C 284.400 191.103,284.040 191.683,283.600 192.000 C 283.160 192.317,282.800 192.814,282.800 193.105 C 282.800 193.396,282.440 194.020,282.000 194.492 C 281.560 194.964,281.200 195.587,281.200 195.875 C 281.200 196.164,281.020 196.400,280.800 196.400 C 280.580 196.400,280.400 196.636,280.400 196.925 C 280.400 197.213,280.085 197.807,279.700 198.245 C 276.591 201.780,276.926 202.000,285.429 202.000 C 293.154 202.000,294.000 201.825,294.000 200.229 C 294.000 199.883,294.180 199.600,294.400 199.600 C 294.620 199.600,294.800 199.364,294.800 199.075 C 294.800 198.787,295.160 198.164,295.600 197.692 C 296.040 197.220,296.400 196.638,296.400 196.400 C 296.400 196.162,296.760 195.580,297.200 195.108 C 297.640 194.636,298.000 194.013,298.000 193.725 C 298.000 193.436,298.180 193.200,298.400 193.200 C 298.620 193.200,298.800 192.880,298.800 192.488 C 298.800 192.097,299.160 191.517,299.600 191.200 C 300.040 190.883,300.400 190.303,300.400 189.912 C 300.400 189.520,300.580 189.200,300.800 189.200 C 301.020 189.200,301.200 188.964,301.200 188.675 C 301.200 188.387,301.560 187.764,302.000 187.292 C 302.440 186.820,302.800 186.238,302.800 186.000 C 302.800 185.762,303.160 185.180,303.600 184.708 C 304.040 184.236,304.400 183.613,304.400 183.325 C 304.400 183.036,304.580 182.800,304.800 182.800 C 305.020 182.800,305.200 182.440,305.200 182.000 C 305.200 180.641,306.104 181.238,307.168 183.300 C 307.480 183.905,307.885 184.400,308.068 184.400 C 308.250 184.400,308.400 184.678,308.400 185.017 C 308.400 185.356,308.760 186.020,309.200 186.492 C 309.640 186.964,310.000 187.587,310.000 187.875 C 310.000 188.164,310.180 188.400,310.400 188.400 C 310.620 188.400,310.800 188.720,310.800 189.112 C 310.800 189.503,311.160 190.083,311.600 190.400 C 312.040 190.717,312.400 191.297,312.400 191.688 C 312.400 192.080,312.580 192.400,312.800 192.400 C 313.020 192.400,313.200 192.636,313.200 192.925 C 313.200 193.213,313.560 193.836,314.000 194.308 C 314.440 194.780,314.800 195.362,314.800 195.600 C 314.800 195.838,315.160 196.420,315.600 196.892 C 316.040 197.364,316.400 197.987,316.400 198.275 C 316.400 198.564,316.580 198.800,316.800 198.800 C 317.020 198.800,317.200 199.078,317.200 199.418 C 317.200 199.758,317.642 200.478,318.182 201.018 C 319.585 202.421,334.800 202.588,334.800 201.200 C 334.800 200.760,334.650 200.400,334.468 200.400 C 334.285 200.400,333.880 199.905,333.568 199.300 C 333.255 198.695,332.685 197.851,332.300 197.425 C 331.915 196.998,331.600 196.413,331.600 196.125 C 331.600 195.836,331.450 195.600,331.268 195.600 C 331.085 195.600,330.680 195.105,330.368 194.500 C 330.055 193.895,329.485 193.051,329.100 192.625 C 328.715 192.198,328.400 191.613,328.400 191.325 C 328.400 191.036,328.250 190.800,328.068 190.800 C 327.885 190.800,327.480 190.305,327.168 189.700 C 326.855 189.095,326.285 188.251,325.900 187.825 C 325.515 187.398,325.200 186.813,325.200 186.525 C 325.200 186.236,325.050 186.000,324.868 186.000 C 324.685 186.000,324.280 185.505,323.968 184.900 C 323.655 184.295,323.085 183.451,322.700 183.025 C 322.315 182.598,322.000 182.013,322.000 181.725 C 322.000 181.436,321.850 181.200,321.668 181.200 C 321.485 181.200,321.080 180.705,320.768 180.100 C 320.455 179.495,319.885 178.651,319.500 178.225 C 319.115 177.798,318.800 177.213,318.800 176.925 C 318.800 176.636,318.650 176.400,318.468 176.400 C 318.285 176.400,317.881 175.905,317.570 175.300 C 317.260 174.695,316.689 173.909,316.303 173.553 C 315.363 172.688,315.412 170.753,316.400 169.692 C 316.840 169.220,317.200 168.596,317.200 168.305 C 317.200 168.014,317.560 167.517,318.000 167.200 C 318.440 166.883,318.800 166.386,318.800 166.095 C 318.800 165.804,319.160 165.180,319.600 164.708 C 320.040 164.236,320.400 163.613,320.400 163.325 C 320.400 163.036,320.580 162.800,320.800 162.800 C 321.020 162.800,321.200 162.564,321.200 162.275 C 321.200 161.987,321.560 161.364,322.000 160.892 C 322.440 160.420,322.800 159.796,322.800 159.505 C 322.800 159.214,323.160 158.717,323.600 158.400 C 324.040 158.083,324.400 157.586,324.400 157.295 C 324.400 157.004,324.760 156.380,325.200 155.908 C 325.640 155.436,326.000 154.813,326.000 154.525 C 326.000 154.236,326.180 154.000,326.400 154.000 C 326.620 154.000,326.800 153.680,326.800 153.288 C 326.800 152.897,327.160 152.317,327.600 152.000 C 328.040 151.683,328.400 151.186,328.400 150.895 C 328.400 150.604,328.760 149.980,329.200 149.508 C 329.640 149.036,330.000 148.413,330.000 148.125 C 330.000 147.836,330.180 147.600,330.400 147.600 C 330.620 147.600,330.800 147.364,330.800 147.075 C 330.800 146.787,331.160 146.164,331.600 145.692 C 332.040 145.220,332.400 144.556,332.400 144.217 C 332.400 143.878,332.580 143.600,332.800 143.600 C 333.020 143.600,333.200 143.060,333.200 142.400 L 333.200 141.200 325.763 141.200 C 318.662 141.200,318.316 141.236,318.116 142.000 C 318.001 142.440,317.748 142.800,317.553 142.800 C 317.359 142.800,317.200 143.078,317.200 143.417 C 317.200 143.756,316.840 144.420,316.400 144.892 C 315.960 145.364,315.600 145.987,315.600 146.275 C 315.600 146.564,315.420 146.800,315.200 146.800 C 314.980 146.800,314.800 147.160,314.800 147.600 C 314.800 148.040,314.620 148.400,314.400 148.400 C 314.180 148.400,314.000 148.636,314.000 148.925 C 314.000 149.213,313.640 149.836,313.200 150.308 C 312.760 150.780,312.400 151.444,312.400 151.783 C 312.400 152.122,312.220 152.400,312.000 152.400 C 311.780 152.400,311.600 152.720,311.600 153.112 C 311.600 153.503,311.240 154.083,310.800 154.400 C 310.360 154.717,310.000 155.297,310.000 155.688 C 310.000 156.080,309.820 156.400,309.600 156.400 C 309.380 156.400,309.200 156.678,309.200 157.017 C 309.200 157.356,308.840 158.020,308.400 158.492 C 307.960 158.964,307.600 159.587,307.600 159.875 C 307.600 160.164,307.420 160.400,307.200 160.400 C 306.980 160.400,306.800 160.704,306.800 161.075 C 306.800 161.648,306.678 161.620,306.000 160.892 C 305.560 160.420,305.200 159.756,305.200 159.417 C 305.200 159.078,305.020 158.800,304.800 158.800 C 304.580 158.800,304.400 158.564,304.400 158.275 C 304.400 157.987,304.040 157.364,303.600 156.892 C 303.160 156.420,302.800 155.756,302.800 155.417 C 302.800 155.078,302.620 154.800,302.400 154.800 C 302.180 154.800,302.000 154.564,302.000 154.275 C 302.000 153.987,301.640 153.364,301.200 152.892 C 300.760 152.420,300.400 151.756,300.400 151.417 C 300.400 151.078,300.220 150.800,300.000 150.800 C 299.780 150.800,299.600 150.564,299.600 150.275 C 299.600 149.987,299.240 149.364,298.800 148.892 C 298.360 148.420,298.000 147.756,298.000 147.417 C 298.000 147.078,297.820 146.800,297.600 146.800 C 297.380 146.800,297.200 146.564,297.200 146.275 C 297.200 145.987,296.840 145.364,296.400 144.892 C 295.960 144.420,295.600 143.756,295.600 143.417 C 295.600 143.078,295.441 142.800,295.247 142.800 C 295.052 142.800,294.799 142.440,294.684 142.000 C 294.484 141.236,294.138 141.200,287.037 141.200 L 279.600 141.200 279.600 142.800 M169.700 152.276 C 170.085 152.376,170.715 152.376,171.100 152.276 C 171.485 152.175,171.170 152.093,170.400 152.093 C 169.630 152.093,169.315 152.175,169.700 152.276 " stroke="none" fill="#07bc65" fill-rule="evenodd"></path><path id="path1" d="M213.805 87.685 C 213.367 87.939,212.661 88.471,212.234 88.869 C 211.808 89.266,211.158 89.686,210.790 89.803 C 210.422 89.920,209.922 90.452,209.679 90.987 C 209.436 91.521,208.778 92.258,208.218 92.625 C 206.438 93.791,206.822 95.312,209.398 97.302 C 210.608 98.236,211.604 99.180,211.612 99.400 C 211.635 100.032,212.787 101.243,215.756 103.755 C 219.669 107.065,221.715 106.520,225.226 101.231 C 226.881 98.738,226.780 98.419,223.200 94.800 C 221.440 93.021,220.000 91.387,220.000 91.169 C 220.000 90.951,219.370 90.401,218.600 89.947 C 217.830 89.493,217.200 88.972,217.200 88.789 C 217.200 87.525,215.202 86.875,213.805 87.685 M201.000 99.987 C 200.560 100.168,199.905 100.650,199.545 101.058 C 199.185 101.466,193.425 107.322,186.745 114.071 C 165.799 135.234,163.200 137.998,163.200 139.109 C 163.200 139.325,162.930 139.726,162.600 140.000 C 161.901 140.580,161.710 147.600,162.392 147.600 C 162.608 147.600,162.907 148.095,163.056 148.700 C 163.741 151.484,163.985 151.592,169.516 151.571 C 174.532 151.552,174.549 151.549,175.749 150.376 C 176.411 149.729,177.273 149.200,177.666 149.200 C 178.058 149.200,178.658 148.662,178.998 148.004 C 179.688 146.670,181.218 145.508,182.053 145.684 C 182.372 145.752,182.554 145.523,182.491 145.136 C 182.431 144.771,182.836 144.115,183.391 143.679 C 183.946 143.242,184.400 142.695,184.400 142.463 C 184.400 142.231,185.030 141.560,185.800 140.973 C 186.570 140.386,187.200 139.725,187.200 139.505 C 187.200 138.974,190.191 136.000,190.726 136.000 C 190.957 136.000,191.522 135.471,191.983 134.824 C 192.756 133.738,195.547 131.914,194.945 132.889 C 194.785 133.149,194.862 133.209,195.138 133.038 C 195.392 132.881,195.600 132.592,195.600 132.396 C 195.600 131.712,197.999 128.493,198.995 127.840 C 199.548 127.478,200.000 126.985,200.000 126.744 C 200.000 126.202,202.961 123.200,203.495 123.200 C 203.709 123.200,204.315 122.695,204.842 122.077 C 205.369 121.460,206.555 120.425,207.478 119.777 C 208.400 119.130,209.537 117.925,210.003 117.100 C 210.815 115.664,211.178 115.423,212.309 115.572 C 214.010 115.796,214.224 111.041,212.589 109.373 C 212.155 108.931,211.257 107.946,210.594 107.185 C 209.931 106.423,208.896 105.481,208.294 105.091 C 207.692 104.701,207.200 104.116,207.200 103.791 C 207.200 103.466,206.960 103.200,206.667 103.200 C 206.374 103.200,205.519 102.502,204.767 101.650 C 203.265 99.947,202.220 99.485,201.000 99.987 M166.463 132.259 C 165.287 133.469,164.398 134.531,164.486 134.619 C 164.574 134.707,165.710 133.704,167.010 132.390 C 168.311 131.075,169.201 130.013,168.987 130.030 C 168.774 130.046,167.638 131.050,166.463 132.259 " stroke="none" fill="#8a53f9" fill-rule="evenodd"></path><path id="path2" d="M213.800 86.400 C 213.664 86.620,213.220 86.800,212.813 86.800 C 211.815 86.800,205.200 93.425,205.200 94.424 C 205.200 95.491,218.123 108.400,219.192 108.400 C 219.661 108.400,221.557 106.858,223.795 104.656 L 227.600 100.912 227.600 98.882 L 227.600 96.852 222.618 91.826 C 219.878 89.062,217.358 86.800,217.018 86.800 C 216.678 86.800,216.400 86.620,216.400 86.400 C 216.400 86.180,215.871 86.000,215.224 86.000 C 214.577 86.000,213.936 86.180,213.800 86.400 M216.571 87.829 C 216.917 88.174,217.200 88.607,217.200 88.789 C 217.200 88.972,217.830 89.493,218.600 89.947 C 219.370 90.401,220.000 90.951,220.000 91.169 C 220.000 91.387,221.440 93.021,223.200 94.800 C 226.780 98.419,226.881 98.738,225.226 101.231 C 221.715 106.520,219.669 107.065,215.756 103.755 C 212.787 101.243,211.635 100.032,211.612 99.400 C 211.604 99.180,210.608 98.236,209.398 97.302 C 206.822 95.312,206.438 93.791,208.218 92.625 C 208.778 92.258,209.436 91.521,209.679 90.987 C 209.922 90.452,210.422 89.920,210.790 89.803 C 211.158 89.686,211.808 89.266,212.234 88.869 C 214.085 87.144,215.539 86.796,216.571 87.829 M188.955 110.107 C 182.331 116.758,175.536 123.504,173.855 125.097 C 172.175 126.691,170.800 128.109,170.800 128.249 C 170.800 128.502,165.139 134.142,163.078 135.942 C 161.826 137.036,161.354 141.034,162.600 140.000 C 162.930 139.726,163.200 139.325,163.200 139.109 C 163.200 137.998,165.799 135.234,186.745 114.071 C 193.425 107.322,199.185 101.467,199.545 101.059 C 201.192 99.196,202.858 99.376,204.771 101.624 C 205.509 102.491,206.357 103.200,206.656 103.200 C 206.955 103.200,207.200 103.466,207.200 103.791 C 207.200 104.116,207.692 104.701,208.294 105.091 C 208.896 105.481,209.931 106.420,210.594 107.177 C 211.257 107.935,212.205 108.996,212.700 109.536 C 213.345 110.239,213.600 111.010,213.600 112.258 C 213.600 114.291,214.106 114.466,215.453 112.900 C 216.743 111.400,217.143 111.986,209.814 104.620 C 204.421 99.199,203.026 98.001,202.114 98.007 C 201.189 98.012,198.955 100.066,188.955 110.107 M211.308 115.481 C 211.038 115.580,210.443 116.322,209.986 117.131 C 209.529 117.939,208.400 119.130,207.478 119.777 C 206.555 120.425,205.369 121.460,204.842 122.077 C 204.315 122.695,203.709 123.200,203.495 123.200 C 202.961 123.200,200.000 126.202,200.000 126.744 C 200.000 126.985,199.548 127.478,198.995 127.840 C 197.936 128.534,195.430 131.963,195.749 132.282 C 195.852 132.385,199.659 128.746,204.209 124.196 C 211.428 116.977,213.218 114.779,211.308 115.481 M193.918 133.056 C 193.323 133.370,192.455 134.161,191.991 134.813 C 191.526 135.466,190.957 136.000,190.726 136.000 C 190.191 136.000,187.200 138.974,187.200 139.505 C 187.200 139.725,186.570 140.386,185.800 140.973 C 185.030 141.560,184.400 142.186,184.400 142.364 C 184.400 142.836,181.980 145.289,180.708 146.106 C 180.108 146.492,179.338 147.346,178.998 148.004 C 178.658 148.662,178.058 149.200,177.666 149.200 C 177.273 149.200,176.411 149.729,175.749 150.376 C 174.549 151.549,174.532 151.552,169.516 151.571 C 163.985 151.592,163.741 151.484,163.056 148.700 C 162.569 146.724,161.954 147.481,162.080 149.900 L 162.200 152.200 168.800 152.213 C 172.598 152.220,175.727 152.050,176.171 151.813 C 177.276 151.221,182.000 146.497,182.000 145.984 C 182.000 145.747,182.208 145.681,182.462 145.838 C 182.748 146.015,182.815 145.948,182.638 145.662 C 182.481 145.408,182.545 145.200,182.780 145.200 C 183.015 145.200,185.815 142.592,189.003 139.403 C 192.192 136.215,194.800 133.415,194.800 133.180 C 194.800 132.945,195.008 132.881,195.262 133.038 C 195.548 133.215,195.615 133.148,195.438 132.862 C 195.281 132.608,195.118 132.419,195.076 132.442 C 195.034 132.466,194.513 132.742,193.918 133.056 " stroke="none" fill="#8964ec" fill-rule="evenodd"></path><path id="path3" d="M204.749 138.677 C 204.376 139.137,204.360 139.257,204.700 139.053 C 205.015 138.864,205.200 138.984,205.200 139.376 C 205.200 139.719,205.020 140.000,204.800 140.000 C 204.537 140.000,204.400 150.600,204.400 171.000 L 204.400 202.000 211.200 202.000 L 218.000 202.000 218.000 189.600 C 218.000 181.600,218.142 177.200,218.400 177.200 C 218.622 177.200,218.800 176.133,218.800 174.800 C 218.800 173.467,218.978 172.400,219.200 172.400 C 219.420 172.400,219.600 172.040,219.600 171.600 C 219.600 171.160,219.780 170.800,220.000 170.800 C 220.220 170.800,220.400 170.524,220.400 170.187 C 220.400 169.179,223.060 166.800,224.187 166.800 C 224.744 166.800,225.200 166.620,225.200 166.400 C 225.200 166.180,226.100 166.000,227.200 166.000 C 228.300 166.000,229.200 166.180,229.200 166.400 C 229.200 166.620,229.478 166.800,229.818 166.800 C 230.618 166.800,232.400 168.582,232.400 169.382 C 232.400 169.722,232.580 170.000,232.800 170.000 C 233.020 170.000,233.200 170.619,233.200 171.376 C 233.200 172.133,233.380 172.864,233.600 173.000 C 233.855 173.157,234.000 178.471,234.000 187.624 L 234.000 202.000 240.800 202.000 L 247.600 202.000 247.600 184.000 C 247.600 172.267,247.461 166.000,247.200 166.000 C 246.980 166.000,246.800 165.460,246.800 164.800 C 246.800 164.140,246.620 163.600,246.400 163.600 C 246.180 163.600,246.000 163.240,246.000 162.800 C 246.000 162.360,245.820 162.000,245.600 162.000 C 245.380 162.000,245.200 161.725,245.200 161.389 C 245.200 160.596,241.804 157.200,241.011 157.200 C 240.675 157.200,240.400 157.020,240.400 156.800 C 240.400 156.580,240.040 156.400,239.600 156.400 C 239.160 156.400,238.800 156.220,238.800 156.000 C 238.800 155.780,238.260 155.600,237.600 155.600 C 236.940 155.600,236.400 155.420,236.400 155.200 C 236.400 154.618,233.709 154.709,233.433 155.300 C 233.247 155.700,233.153 155.700,232.967 155.300 C 232.680 154.685,225.774 154.594,225.400 155.200 C 225.264 155.420,224.623 155.600,223.976 155.600 C 223.329 155.600,222.800 155.780,222.800 156.000 C 222.800 156.220,222.480 156.400,222.088 156.400 C 221.697 156.400,221.117 156.760,220.800 157.200 C 220.483 157.640,220.015 158.000,219.760 158.000 C 219.506 158.000,219.015 158.405,218.670 158.900 C 218.092 159.728,218.040 158.923,218.021 148.900 L 218.000 138.000 212.433 138.000 C 208.371 138.000,206.804 138.135,206.633 138.500 C 206.447 138.900,206.353 138.900,206.167 138.500 C 205.848 137.817,205.401 137.873,204.749 138.677 M261.200 138.800 C 260.965 139.240,260.585 139.600,260.357 139.600 C 259.177 139.600,258.800 140.802,258.800 144.571 C 258.800 146.857,258.961 148.400,259.200 148.400 C 259.420 148.400,259.600 148.687,259.600 149.037 C 259.600 149.388,259.960 149.769,260.400 149.884 C 260.840 149.999,261.200 150.252,261.200 150.447 C 261.200 150.641,261.740 150.800,262.400 150.800 C 263.060 150.800,263.600 150.962,263.600 151.160 C 263.600 151.358,264.680 151.520,266.000 151.520 C 267.320 151.520,268.400 151.358,268.400 151.160 C 268.400 150.962,268.856 150.800,269.413 150.800 C 272.294 150.800,274.779 143.861,272.700 141.621 C 272.300 141.190,272.300 141.139,272.700 141.365 C 273.500 141.816,273.279 141.093,272.253 139.900 C 271.733 139.295,271.013 138.800,270.653 138.800 C 270.294 138.800,270.000 138.620,270.000 138.400 C 270.000 137.533,261.676 137.911,261.200 138.800 M22.000 155.200 C 22.000 155.420,21.460 155.600,20.800 155.600 C 20.140 155.600,19.600 155.780,19.600 156.000 C 19.600 156.220,19.240 156.400,18.800 156.400 C 18.360 156.400,18.000 156.580,18.000 156.800 C 18.000 157.020,17.714 157.200,17.365 157.200 C 16.603 157.200,12.400 161.478,12.400 162.254 C 12.400 162.554,12.220 162.800,12.000 162.800 C 11.780 162.800,11.600 163.160,11.600 163.600 C 11.600 164.040,11.422 164.400,11.205 164.400 C 10.987 164.400,10.852 164.805,10.905 165.300 C 10.962 165.844,10.802 166.160,10.500 166.100 C 10.167 166.033,10.000 166.533,10.000 167.600 C 10.000 168.480,9.820 169.200,9.600 169.200 C 9.378 169.200,9.200 170.267,9.200 171.600 C 9.200 172.933,9.022 174.000,8.800 174.000 C 8.554 174.000,8.400 176.000,8.400 179.200 C 8.400 182.400,8.554 184.400,8.800 184.400 C 9.022 184.400,9.200 185.467,9.200 186.800 C 9.200 188.133,9.378 189.200,9.600 189.200 C 9.820 189.200,10.000 189.740,10.000 190.400 C 10.000 191.060,10.180 191.600,10.400 191.600 C 10.620 191.600,10.800 191.955,10.800 192.388 C 10.800 193.918,13.408 197.766,14.139 197.314 C 14.377 197.167,14.429 197.348,14.269 197.764 C 13.973 198.537,14.457 199.120,16.100 199.968 C 16.705 200.280,17.200 200.685,17.200 200.868 C 17.200 201.050,17.560 201.200,18.000 201.200 C 18.440 201.200,18.800 201.380,18.800 201.600 C 18.800 201.820,19.160 202.000,19.600 202.000 C 20.040 202.000,20.400 202.180,20.400 202.400 C 20.400 202.622,21.468 202.800,22.805 202.800 C 24.128 202.800,25.564 203.020,25.995 203.290 C 26.615 203.677,26.883 203.677,27.270 203.290 C 27.544 203.016,28.783 202.800,30.080 202.800 C 31.360 202.800,32.400 202.621,32.400 202.400 C 32.400 202.180,32.816 202.000,33.325 202.000 C 33.833 202.000,34.636 201.640,35.108 201.200 C 35.580 200.760,36.204 200.400,36.495 200.400 C 36.786 200.400,37.283 200.040,37.600 199.600 C 37.917 199.160,38.317 198.800,38.488 198.800 C 38.950 198.800,38.867 203.911,38.400 204.200 C 38.180 204.336,38.000 204.977,38.000 205.624 C 38.000 206.271,37.820 206.800,37.600 206.800 C 37.380 206.800,37.200 207.076,37.200 207.413 C 37.200 208.299,34.568 210.800,33.637 210.800 C 33.203 210.800,32.736 210.980,32.600 211.200 C 32.460 211.427,30.463 211.600,27.976 211.600 C 25.325 211.600,23.600 211.442,23.600 211.200 C 23.600 210.980,22.711 210.800,21.624 210.800 C 20.537 210.800,19.536 210.620,19.400 210.400 C 19.264 210.180,18.533 210.000,17.776 210.000 C 17.019 210.000,16.400 209.820,16.400 209.600 C 16.400 209.380,15.860 209.200,15.200 209.200 C 14.540 209.200,14.000 209.020,14.000 208.800 C 14.000 208.580,13.460 208.400,12.800 208.400 L 11.600 208.400 11.600 213.829 C 11.600 219.726,11.823 220.400,13.771 220.400 C 14.337 220.400,14.800 220.580,14.800 220.800 C 14.800 221.020,15.700 221.200,16.800 221.200 C 17.900 221.200,18.800 221.380,18.800 221.600 C 18.800 221.855,22.133 222.000,28.000 222.000 C 33.867 222.000,37.200 221.855,37.200 221.600 C 37.200 221.380,37.920 221.200,38.800 221.200 C 39.680 221.200,40.400 221.020,40.400 220.800 C 40.400 220.580,40.760 220.400,41.200 220.400 C 41.640 220.400,42.000 220.220,42.000 220.000 C 42.000 219.780,42.360 219.600,42.800 219.600 C 43.240 219.600,43.600 219.420,43.600 219.200 C 43.600 218.980,43.873 218.800,44.207 218.800 C 44.999 218.800,50.000 213.799,50.000 213.007 C 50.000 212.673,50.180 212.400,50.400 212.400 C 50.620 212.400,50.800 212.051,50.800 211.624 C 50.800 211.197,50.980 210.736,51.200 210.600 C 51.420 210.464,51.600 209.733,51.600 208.976 C 51.600 208.219,51.780 207.600,52.000 207.600 C 52.263 207.600,52.400 198.667,52.400 181.600 L 52.400 155.600 46.375 155.600 C 40.876 155.600,40.356 155.661,40.421 156.300 C 40.701 159.050,39.570 160.080,38.054 158.457 C 37.408 157.766,36.591 157.200,36.240 157.200 C 35.888 157.200,35.600 157.020,35.600 156.800 C 35.600 156.580,35.240 156.400,34.800 156.400 C 34.360 156.400,34.000 156.220,34.000 156.000 C 34.000 155.780,33.561 155.600,33.024 155.600 C 32.487 155.600,31.936 155.420,31.800 155.200 C 31.658 154.969,29.529 154.800,26.776 154.800 C 23.859 154.800,22.000 154.956,22.000 155.200 M85.200 155.200 C 85.200 155.420,84.966 155.600,84.680 155.600 C 83.944 155.600,82.007 156.541,82.003 156.900 C 82.001 157.065,81.718 157.200,81.374 157.200 C 81.030 157.200,79.859 158.112,78.773 159.228 C 76.529 161.532,75.600 161.356,75.600 158.629 C 75.600 157.843,75.420 157.200,75.200 157.200 C 74.980 157.200,74.800 156.840,74.800 156.400 C 74.800 155.638,74.533 155.600,69.200 155.600 L 63.600 155.600 63.600 178.800 L 63.600 202.000 70.800 202.000 L 78.000 202.000 78.000 188.400 C 78.000 179.600,78.141 174.800,78.400 174.800 C 78.620 174.800,78.800 174.440,78.800 174.000 C 78.800 173.560,78.980 173.200,79.200 173.200 C 79.420 173.200,79.600 172.922,79.600 172.582 C 79.600 171.782,81.382 170.000,82.182 170.000 C 82.522 170.000,82.800 169.820,82.800 169.600 C 82.800 169.380,83.160 169.200,83.600 169.200 C 84.040 169.200,84.400 169.020,84.400 168.800 C 84.400 168.580,85.019 168.400,85.776 168.400 C 86.533 168.400,87.264 168.220,87.400 168.000 C 87.536 167.780,88.526 167.600,89.600 167.600 C 90.674 167.600,91.664 167.780,91.800 168.000 C 92.732 169.508,94.000 168.368,94.000 166.024 C 94.000 164.717,94.180 163.536,94.400 163.400 C 94.625 163.261,94.800 161.329,94.800 158.976 L 94.800 154.800 90.000 154.800 C 87.067 154.800,85.200 154.956,85.200 155.200 M113.200 155.200 C 113.200 155.420,112.480 155.600,111.600 155.600 C 110.720 155.600,110.000 155.780,110.000 156.000 C 110.000 156.220,109.471 156.400,108.824 156.400 C 108.177 156.400,107.536 156.580,107.400 156.800 C 107.264 157.020,106.713 157.200,106.176 157.200 C 105.639 157.200,105.200 157.380,105.200 157.600 C 105.200 157.820,104.917 158.000,104.571 158.000 C 104.226 158.000,103.686 158.257,103.371 158.571 C 102.722 159.221,102.593 161.200,103.200 161.200 C 103.420 161.200,103.600 161.560,103.600 162.000 C 103.600 162.440,103.780 162.800,104.000 162.800 C 104.220 162.800,104.400 163.160,104.400 163.600 C 104.400 164.040,104.580 164.400,104.800 164.400 C 105.020 164.400,105.200 164.760,105.200 165.200 C 105.200 165.640,105.380 166.000,105.600 166.000 C 105.820 166.000,106.000 166.283,106.000 166.629 C 106.000 168.053,109.080 169.165,109.800 168.000 C 109.936 167.780,110.397 167.600,110.824 167.600 C 111.251 167.600,111.600 167.420,111.600 167.200 C 111.600 166.980,112.140 166.800,112.800 166.800 C 113.460 166.800,114.000 166.620,114.000 166.400 C 114.000 166.180,114.720 166.000,115.600 166.000 C 116.480 166.000,117.200 165.820,117.200 165.600 C 117.200 165.375,118.325 165.200,119.776 165.200 C 121.193 165.200,122.464 165.380,122.600 165.600 C 122.736 165.820,123.115 166.000,123.442 166.000 C 124.304 166.000,126.000 167.829,126.000 168.758 C 126.000 169.195,126.180 169.664,126.400 169.800 C 126.620 169.936,126.800 170.577,126.800 171.224 L 126.800 172.400 123.624 172.400 C 121.877 172.400,120.336 172.580,120.200 172.800 C 120.062 173.023,118.204 173.200,116.000 173.200 C 113.796 173.200,111.938 173.377,111.800 173.600 C 111.664 173.820,111.006 174.000,110.338 174.000 C 109.670 174.000,108.568 174.395,107.890 174.879 C 107.179 175.384,106.796 175.512,106.986 175.179 C 107.255 174.709,107.216 174.694,106.779 175.100 C 106.482 175.375,105.913 175.600,105.513 175.600 C 104.365 175.600,99.600 180.590,99.600 181.793 C 99.600 182.347,99.420 182.800,99.200 182.800 C 98.952 182.800,98.800 184.933,98.800 188.400 C 98.800 191.867,98.952 194.000,99.200 194.000 C 99.420 194.000,99.600 194.540,99.600 195.200 C 99.600 195.860,99.780 196.400,100.000 196.400 C 100.220 196.400,100.400 196.635,100.400 196.922 C 100.400 197.647,102.985 200.400,103.666 200.400 C 103.972 200.400,104.483 200.760,104.800 201.200 C 105.139 201.670,105.835 202.000,106.488 202.000 C 107.100 202.000,107.600 202.180,107.600 202.400 C 107.600 202.621,108.640 202.800,109.920 202.800 C 111.217 202.800,112.456 203.016,112.730 203.290 C 113.117 203.677,113.385 203.677,114.005 203.290 C 114.436 203.020,116.052 202.800,117.595 202.800 C 119.198 202.800,120.400 202.629,120.400 202.400 C 120.400 202.180,120.940 202.000,121.600 202.000 C 122.260 202.000,122.800 201.820,122.800 201.600 C 122.800 201.380,123.082 201.200,123.426 201.200 C 123.770 201.200,124.950 200.278,126.047 199.152 C 128.176 196.966,129.153 197.074,129.187 199.500 C 129.194 199.995,129.380 200.400,129.600 200.400 C 129.820 200.400,130.000 200.760,130.000 201.200 C 130.000 201.959,130.267 202.000,135.200 202.000 L 140.400 202.000 140.400 184.000 C 140.400 172.267,140.261 166.000,140.000 166.000 C 139.780 166.000,139.600 165.460,139.600 164.800 C 139.600 164.140,139.420 163.600,139.200 163.600 C 138.980 163.600,138.800 163.240,138.800 162.800 C 138.800 162.360,138.620 162.000,138.400 162.000 C 138.180 162.000,138.000 161.724,138.000 161.387 C 138.000 160.692,135.454 158.000,134.797 158.000 C 134.560 158.000,133.980 157.640,133.508 157.200 C 133.036 156.760,132.233 156.400,131.725 156.400 C 131.216 156.400,130.800 156.220,130.800 156.000 C 130.800 155.780,130.271 155.600,129.624 155.600 C 128.977 155.600,128.336 155.420,128.200 155.200 C 128.050 154.957,125.063 154.800,120.576 154.800 C 115.925 154.800,113.200 154.948,113.200 155.200 M172.400 155.200 C 172.400 155.420,171.860 155.600,171.200 155.600 C 170.540 155.600,170.000 155.750,170.000 155.932 C 170.000 156.115,169.505 156.520,168.900 156.832 C 168.295 157.145,167.139 158.075,166.331 158.900 C 164.558 160.712,164.400 160.736,164.400 159.200 C 164.400 158.540,164.241 158.000,164.047 158.000 C 163.852 158.000,163.594 157.622,163.474 157.160 C 163.352 156.693,163.063 156.438,162.824 156.585 C 162.588 156.731,162.286 156.569,162.154 156.225 C 161.891 155.540,160.800 155.358,160.800 156.000 C 160.800 156.220,160.530 156.400,160.200 156.400 C 159.870 156.400,159.600 156.220,159.600 156.000 C 159.600 155.769,158.333 155.600,156.600 155.600 C 154.533 155.600,153.600 155.749,153.600 156.080 C 153.600 156.453,153.493 156.453,153.120 156.080 C 151.592 154.552,151.600 154.379,151.600 188.800 L 151.600 222.000 158.800 222.000 L 166.000 222.000 166.000 212.224 C 166.000 206.137,165.849 202.354,165.600 202.200 C 165.200 201.953,165.018 198.800,165.404 198.800 C 165.516 198.800,166.172 199.340,166.863 200.000 C 167.554 200.660,168.362 201.200,168.659 201.200 C 168.957 201.200,169.200 201.380,169.200 201.600 C 169.200 201.820,169.549 202.000,169.976 202.000 C 170.403 202.000,170.864 202.180,171.000 202.400 C 171.136 202.620,172.371 202.800,173.744 202.800 C 175.152 202.800,176.449 203.009,176.720 203.280 C 177.093 203.653,177.307 203.653,177.680 203.280 C 177.951 203.009,179.248 202.800,180.656 202.800 C 182.029 202.800,183.264 202.620,183.400 202.400 C 183.536 202.180,183.997 202.000,184.424 202.000 C 184.851 202.000,185.200 201.820,185.200 201.600 C 185.200 201.380,185.488 201.200,185.840 201.200 C 186.626 201.200,192.400 195.366,192.400 194.572 C 192.400 194.257,192.580 194.000,192.800 194.000 C 193.020 194.000,193.200 193.651,193.200 193.224 C 193.200 192.797,193.380 192.336,193.600 192.200 C 193.820 192.064,194.000 191.524,194.000 191.000 C 194.000 190.476,194.180 189.936,194.400 189.800 C 194.620 189.664,194.800 188.674,194.800 187.600 C 194.800 186.526,194.980 185.536,195.200 185.400 C 195.440 185.252,195.600 182.596,195.600 178.776 C 195.600 174.792,195.450 172.400,195.200 172.400 C 194.980 172.400,194.800 171.421,194.800 170.224 C 194.800 169.027,194.620 167.936,194.400 167.800 C 194.180 167.664,194.000 167.124,194.000 166.600 C 194.000 166.076,193.820 165.536,193.600 165.400 C 193.380 165.264,193.200 164.803,193.200 164.376 C 193.200 163.949,193.020 163.600,192.800 163.600 C 192.580 163.600,192.400 163.321,192.400 162.981 C 192.400 162.174,186.626 156.400,185.819 156.400 C 185.479 156.400,185.200 156.220,185.200 156.000 C 185.200 155.780,184.660 155.600,184.000 155.600 C 183.340 155.600,182.800 155.420,182.800 155.200 C 182.800 154.683,176.393 154.671,175.040 155.185 C 174.392 155.431,173.943 155.431,173.791 155.185 C 173.477 154.677,172.400 154.689,172.400 155.200 M353.400 155.200 C 353.264 155.420,352.634 155.600,352.000 155.600 C 351.366 155.600,350.736 155.780,350.600 156.000 C 350.464 156.220,349.913 156.400,349.376 156.400 C 348.839 156.400,348.400 156.580,348.400 156.800 C 348.400 157.020,348.080 157.200,347.688 157.200 C 347.297 157.200,346.717 157.560,346.400 158.000 C 346.083 158.440,345.588 158.800,345.301 158.800 C 344.573 158.800,341.200 162.245,341.200 162.989 C 341.200 163.325,341.053 163.600,340.874 163.600 C 340.408 163.600,338.800 166.731,338.800 167.638 C 338.800 168.057,338.620 168.400,338.400 168.400 C 338.180 168.400,338.000 169.120,338.000 170.000 C 338.000 170.880,337.815 171.600,337.589 171.600 C 337.027 171.600,337.106 185.902,337.670 186.090 C 337.895 186.165,338.080 186.896,338.080 187.713 C 338.080 188.531,338.242 189.200,338.440 189.200 C 338.638 189.200,338.800 189.560,338.800 190.000 C 338.800 190.440,338.980 190.800,339.200 190.800 C 339.420 190.800,339.600 191.160,339.600 191.600 C 339.600 192.040,339.780 192.400,340.000 192.400 C 340.220 192.400,340.400 192.720,340.400 193.112 C 340.400 193.503,340.760 194.083,341.200 194.400 C 341.640 194.717,342.000 195.213,342.000 195.502 C 342.000 196.184,344.616 198.800,345.298 198.800 C 345.587 198.800,346.083 199.160,346.400 199.600 C 346.717 200.040,347.297 200.400,347.688 200.400 C 348.080 200.400,348.400 200.580,348.400 200.800 C 348.400 201.020,348.760 201.200,349.200 201.200 C 349.640 201.200,350.000 201.380,350.000 201.600 C 350.000 201.820,350.540 202.000,351.200 202.000 C 351.860 202.000,352.400 202.170,352.400 202.378 C 352.400 202.586,353.765 202.756,355.432 202.756 C 357.221 202.756,358.704 202.955,359.049 203.241 C 359.492 203.608,359.746 203.614,360.097 203.263 C 360.369 202.991,361.850 202.800,363.680 202.800 C 365.493 202.800,366.800 202.632,366.800 202.400 C 366.800 202.180,367.329 202.000,367.976 202.000 C 368.623 202.000,369.264 201.820,369.400 201.600 C 369.536 201.380,370.087 201.200,370.624 201.200 C 371.161 201.200,371.600 201.050,371.600 200.868 C 371.600 200.685,372.092 200.280,372.693 199.968 C 374.208 199.181,378.800 194.549,378.800 193.807 C 378.800 193.473,378.980 193.200,379.200 193.200 C 379.420 193.200,379.600 192.840,379.600 192.400 C 379.600 191.960,379.801 191.600,380.047 191.600 C 380.296 191.600,380.401 191.247,380.284 190.800 C 380.148 190.280,380.272 190.000,380.637 190.000 C 380.993 190.000,381.200 189.568,381.200 188.824 C 381.200 188.177,381.364 187.546,381.565 187.422 C 381.765 187.298,381.929 185.917,381.929 184.354 C 381.929 182.790,382.125 181.315,382.365 181.075 C 382.911 180.529,382.941 177.200,382.400 177.200 C 382.167 177.200,382.000 175.867,382.000 174.000 C 382.000 172.133,381.833 170.800,381.600 170.800 C 381.380 170.800,381.200 170.260,381.200 169.600 C 381.200 168.940,381.020 168.400,380.800 168.400 C 380.580 168.400,380.400 168.045,380.400 167.612 C 380.400 166.696,379.137 164.329,377.994 163.101 C 377.557 162.632,377.200 162.082,377.200 161.879 C 377.200 161.381,374.358 158.800,373.810 158.800 C 373.572 158.800,373.117 158.440,372.800 158.000 C 372.483 157.560,371.903 157.200,371.512 157.200 C 371.120 157.200,370.800 157.020,370.800 156.800 C 370.800 156.580,370.260 156.400,369.600 156.400 C 368.940 156.400,368.400 156.220,368.400 156.000 C 368.400 155.780,367.860 155.600,367.200 155.600 C 366.540 155.600,366.000 155.420,366.000 155.200 C 366.000 154.951,363.675 154.800,359.824 154.800 C 356.137 154.800,353.548 154.961,353.400 155.200 M258.806 178.856 L 258.788 202.000 265.994 202.000 L 273.200 202.000 273.200 178.777 L 273.200 155.553 266.012 155.632 L 258.825 155.711 258.806 178.856 M31.800 166.400 C 31.936 166.620,32.581 166.800,33.234 166.800 C 34.535 166.800,38.000 169.846,38.000 170.989 C 38.000 171.325,38.180 171.600,38.400 171.600 C 38.620 171.600,38.800 172.579,38.800 173.776 C 38.800 174.973,38.980 176.064,39.200 176.200 C 39.420 176.336,39.600 178.057,39.600 180.024 C 39.600 182.141,39.437 183.600,39.200 183.600 C 38.980 183.600,38.800 184.320,38.800 185.200 C 38.800 186.080,38.620 186.800,38.400 186.800 C 38.180 186.800,38.000 187.102,38.000 187.472 C 38.000 187.842,37.165 188.922,36.144 189.872 L 34.289 191.600 31.134 191.600 L 27.979 191.600 26.189 189.811 C 25.205 188.826,24.400 187.746,24.400 187.411 C 24.400 187.075,24.220 186.800,24.000 186.800 C 23.780 186.800,23.600 186.181,23.600 185.424 C 23.600 184.667,23.420 183.936,23.200 183.800 C 22.971 183.659,22.800 181.604,22.800 179.000 C 22.800 176.396,22.971 174.341,23.200 174.200 C 23.420 174.064,23.600 173.423,23.600 172.776 C 23.600 172.129,23.780 171.600,24.000 171.600 C 24.220 171.600,24.400 171.240,24.400 170.800 C 24.400 170.360,24.580 170.000,24.800 170.000 C 25.020 170.000,25.200 169.717,25.200 169.371 C 25.200 168.563,26.163 167.600,26.971 167.600 C 27.317 167.600,27.600 167.420,27.600 167.200 C 27.600 166.980,28.039 166.800,28.576 166.800 C 29.113 166.800,29.664 166.620,29.800 166.400 C 29.936 166.180,30.386 166.000,30.800 166.000 C 31.214 166.000,31.664 166.180,31.800 166.400 M175.600 166.400 C 175.600 166.620,175.876 166.800,176.213 166.800 C 176.551 166.800,177.451 167.424,178.213 168.187 C 178.976 168.949,179.600 169.849,179.600 170.187 C 179.600 170.524,179.780 170.800,180.000 170.800 C 180.220 170.800,180.400 171.340,180.400 172.000 C 180.400 172.660,180.580 173.200,180.800 173.200 C 181.048 173.200,181.200 175.333,181.200 178.800 C 181.200 182.267,181.048 184.400,180.800 184.400 C 180.580 184.400,180.400 184.940,180.400 185.600 C 180.400 186.260,180.220 186.800,180.000 186.800 C 179.780 186.800,179.600 187.088,179.600 187.440 C 179.600 188.270,177.070 190.800,176.240 190.800 C 175.888 190.800,175.600 190.980,175.600 191.200 C 175.600 191.420,174.700 191.600,173.600 191.600 C 172.500 191.600,171.600 191.420,171.600 191.200 C 171.600 190.980,171.366 190.800,171.080 190.800 C 169.961 190.800,168.366 189.747,167.897 188.700 C 167.626 188.095,167.269 187.600,167.102 187.600 C 166.936 187.600,166.800 187.060,166.800 186.400 C 166.800 185.740,166.620 185.200,166.400 185.200 C 166.150 185.200,166.000 182.808,166.000 178.824 C 166.000 175.004,166.160 172.348,166.400 172.200 C 166.620 172.064,166.800 171.513,166.800 170.976 C 166.800 170.439,166.980 170.000,167.200 170.000 C 167.420 170.000,167.600 169.717,167.600 169.371 C 167.600 168.563,168.563 167.600,169.371 167.600 C 169.717 167.600,170.000 167.420,170.000 167.200 C 170.000 166.980,170.360 166.800,170.800 166.800 C 171.240 166.800,171.600 166.620,171.600 166.400 C 171.600 166.180,172.500 166.000,173.600 166.000 C 174.700 166.000,175.600 166.180,175.600 166.400 M361.200 166.400 C 361.200 166.620,361.740 166.800,362.400 166.800 C 363.060 166.800,363.600 166.937,363.600 167.105 C 363.600 167.273,364.005 167.588,364.500 167.805 C 364.995 168.022,365.578 168.605,365.795 169.100 C 366.012 169.595,366.327 170.000,366.495 170.000 C 366.663 170.000,366.800 170.360,366.800 170.800 C 366.800 171.240,366.980 171.600,367.200 171.600 C 367.420 171.600,367.600 172.309,367.600 173.176 C 367.600 174.043,367.780 174.864,368.000 175.000 C 368.221 175.137,368.400 176.937,368.400 179.024 C 368.400 181.275,368.238 182.800,368.000 182.800 C 367.780 182.800,367.600 183.520,367.600 184.400 C 367.600 185.280,367.420 186.000,367.200 186.000 C 366.980 186.000,366.800 186.360,366.800 186.800 C 366.800 187.240,366.620 187.600,366.400 187.600 C 366.180 187.600,366.000 187.894,366.000 188.253 C 366.000 189.063,364.039 190.799,363.124 190.800 C 362.752 190.800,362.336 190.980,362.200 191.200 C 362.064 191.420,360.883 191.600,359.576 191.600 C 358.259 191.600,357.200 191.422,357.200 191.200 C 357.200 190.980,356.840 190.800,356.400 190.800 C 355.960 190.800,355.600 190.620,355.600 190.400 C 355.600 190.180,355.324 190.000,354.987 190.000 C 354.651 190.000,354.258 189.685,354.115 189.300 C 353.972 188.915,353.528 188.309,353.128 187.953 C 352.727 187.597,352.400 186.832,352.400 186.253 C 352.400 185.674,352.220 185.200,352.000 185.200 C 351.778 185.200,351.600 184.141,351.600 182.824 C 351.600 181.517,351.420 180.336,351.200 180.200 C 350.980 180.064,350.800 179.434,350.800 178.800 C 350.800 178.166,350.980 177.536,351.200 177.400 C 351.420 177.264,351.600 176.083,351.600 174.776 C 351.600 173.459,351.778 172.400,352.000 172.400 C 352.220 172.400,352.400 171.979,352.400 171.464 C 352.400 170.105,355.632 166.800,356.960 166.800 C 357.532 166.800,358.000 166.620,358.000 166.400 C 358.000 166.180,358.720 166.000,359.600 166.000 C 360.480 166.000,361.200 166.180,361.200 166.400 M126.800 183.600 C 126.800 184.933,126.622 186.000,126.400 186.000 C 126.180 186.000,126.000 186.455,126.000 187.011 C 126.000 188.140,122.842 191.600,121.811 191.600 C 121.475 191.600,121.200 191.780,121.200 192.000 C 121.200 192.229,120.000 192.400,118.400 192.400 C 116.800 192.400,115.600 192.229,115.600 192.000 C 115.600 191.780,115.317 191.600,114.971 191.600 C 112.660 191.600,112.389 186.384,114.587 184.187 C 115.349 183.424,116.249 182.800,116.587 182.800 C 116.924 182.800,117.200 182.620,117.200 182.400 C 117.200 182.178,118.267 182.000,119.600 182.000 C 120.933 182.000,122.000 181.822,122.000 181.600 C 122.000 181.378,123.067 181.200,124.400 181.200 L 126.800 181.200 126.800 183.600 " stroke="none" fill="#0b0c0c" fill-rule="evenodd"></path><path id="path4" d="M204.500 139.000 C 204.500 139.550,204.655 140.000,204.846 140.000 C 205.036 140.000,205.154 139.550,205.108 139.000 C 205.063 138.450,204.907 138.000,204.763 138.000 C 204.618 138.000,204.500 138.450,204.500 139.000 M159.600 156.000 C 159.600 156.220,159.870 156.400,160.200 156.400 C 160.530 156.400,160.800 156.220,160.800 156.000 C 160.800 155.780,160.530 155.600,160.200 155.600 C 159.870 155.600,159.600 155.780,159.600 156.000 M162.099 156.097 C 162.178 156.335,162.559 156.576,162.944 156.633 C 163.330 156.690,163.580 156.541,163.501 156.303 C 163.422 156.065,163.041 155.824,162.656 155.767 C 162.270 155.710,162.020 155.859,162.099 156.097 " stroke="none" fill="#140c10" fill-rule="evenodd"></path></g></svg>